<?xml version="1.0" encoding="UTF-8" standalone="no"?>
<!DOCTYPE svg PUBLIC "-//W3C//DTD SVG 1.1//EN"
 "http://www.w3.org/Graphics/SVG/1.1/DTD/svg11.dtd">
<!-- Generated by graphviz version 2.43.0 (0)
 -->
<!-- Title: packages_Backend_Full Pages: 1 -->
<svg width="405pt" height="116pt"
 viewBox="0.00 0.00 405.00 116.00" xmlns="http://www.w3.org/2000/svg" xmlns:xlink="http://www.w3.org/1999/xlink">
<g id="graph0" class="graph" transform="scale(1 1) rotate(0) translate(4 112)">
<title>packages_Backend_Full</title>
<polygon fill="white" stroke="transparent" points="-4,4 -4,-112 401,-112 401,4 -4,4"/>
<!-- BD.models -->
<g id="node1" class="node">
<title>BD.models</title>
<polygon fill="none" stroke="black" points="93,-108 0,-108 0,-72 93,-72 93,-108"/>
<text text-anchor="middle" x="46.5" y="-86.3" font-family="Times,serif" font-size="14.00">BD.models</text>
</g>
<!-- BD.schemas -->
<g id="node2" class="node">
<title>BD.schemas</title>
<polygon fill="none" stroke="black" points="373.5,-36 269.5,-36 269.5,0 373.5,0 373.5,-36"/>
<text text-anchor="middle" x="321.5" y="-14.3" font-family="Times,serif" font-size="14.00">BD.schemas</text>
</g>
<!-- Core.redis -->
<g id="node3" class="node">
<title>Core.redis</title>
<polygon fill="none" stroke="black" points="202,-108 111,-108 111,-72 202,-72 202,-108"/>
<text text-anchor="middle" x="156.5" y="-86.3" font-family="Times,serif" font-size="14.00">Core.redis</text>
</g>
<!-- WS_Manager.dispatcher -->
<g id="node4" class="node">
<title>WS_Manager.dispatcher</title>
<polygon fill="none" stroke="black" points="251.5,-36 61.5,-36 61.5,0 251.5,0 251.5,-36"/>
<text text-anchor="middle" x="156.5" y="-14.3" font-family="Times,serif" font-size="14.00">WS_Manager.dispatcher</text>
</g>
<!-- WS_Manager.dispatcher&#45;&gt;BD.models -->
<g id="edge1" class="edge">
<title>WS_Manager.dispatcher&#45;&gt;BD.models</title>
<path fill="none" stroke="black" d="M129.59,-36.12C115.34,-45.19 97.65,-56.45 82.26,-66.24"/>
<polygon fill="black" stroke="black" points="73.51,-71.81 79.53,-62.64 77.73,-69.13 81.95,-66.44 81.95,-66.44 81.95,-66.44 77.73,-69.13 84.37,-70.24 73.51,-71.81 73.51,-71.81"/>
</g>
<!-- WS_Manager.dispatcher&#45;&gt;Core.redis -->
<g id="edge2" class="edge">
<title>WS_Manager.dispatcher&#45;&gt;Core.redis</title>
<path fill="none" stroke="black" d="M156.5,-36.3C156.5,-44.02 156.5,-53.29 156.5,-61.89"/>
<polygon fill="black" stroke="black" points="156.5,-71.9 152,-61.9 156.5,-66.9 156.5,-61.9 156.5,-61.9 156.5,-61.9 156.5,-66.9 161,-61.9 156.5,-71.9 156.5,-71.9"/>
</g>
<!-- WS_Manager.manager -->
<g id="node5" class="node">
<title>WS_Manager.manager</title>
<polygon fill="none" stroke="black" points="397,-108 220,-108 220,-72 397,-72 397,-108"/>
<text text-anchor="middle" x="308.5" y="-86.3" font-family="Times,serif" font-size="14.00">WS_Manager.manager</text>
</g>
<!-- WS_Manager.dispatcher&#45;&gt;WS_Manager.manager -->
<g id="edge3" class="edge">
<title>WS_Manager.dispatcher&#45;&gt;WS_Manager.manager</title>
<path fill="none" stroke="black" d="M193.68,-36.12C214.37,-45.65 240.3,-57.59 262.28,-67.72"/>
<polygon fill="black" stroke="black" points="271.44,-71.93 260.47,-71.84 266.9,-69.84 262.35,-67.75 262.35,-67.75 262.35,-67.75 266.9,-69.84 264.24,-63.66 271.44,-71.93 271.44,-71.93"/>
</g>
</g>
</svg>
