<?xml version="1.0" encoding="UTF-8" standalone="no"?>
<!DOCTYPE svg PUBLIC "-//W3C//DTD SVG 1.1//EN"
 "http://www.w3.org/Graphics/SVG/1.1/DTD/svg11.dtd">
<!-- Generated by graphviz version 2.43.0 (0)
 -->
<!-- Title: packages_Common Pages: 1 -->
<svg width="280pt" height="116pt"
 viewBox="0.00 0.00 279.50 116.00" xmlns="http://www.w3.org/2000/svg" xmlns:xlink="http://www.w3.org/1999/xlink">
<g id="graph0" class="graph" transform="scale(1 1) rotate(0) translate(4 112)">
<title>packages_Common</title>
<polygon fill="white" stroke="transparent" points="-4,4 -4,-112 275.5,-112 275.5,4 -4,4"/>
<!-- configuration -->
<g id="node1" class="node">
<title>configuration</title>
<polygon fill="none" stroke="black" points="111,-36 0,-36 0,0 111,0 111,-36"/>
<text text-anchor="middle" x="55.5" y="-14.3" font-family="Times,serif" font-size="14.00">configuration</text>
</g>
<!-- demeter_protocol -->
<g id="node2" class="node">
<title>demeter_protocol</title>
<polygon fill="none" stroke="black" points="271.5,-36 129.5,-36 129.5,0 271.5,0 271.5,-36"/>
<text text-anchor="middle" x="200.5" y="-14.3" font-family="Times,serif" font-size="14.00">demeter_protocol</text>
</g>
<!-- schemas -->
<g id="node3" class="node">
<title>schemas</title>
<polygon fill="none" stroke="black" points="239.5,-108 161.5,-108 161.5,-72 239.5,-72 239.5,-108"/>
<text text-anchor="middle" x="200.5" y="-86.3" font-family="Times,serif" font-size="14.00">schemas</text>
</g>
<!-- demeter_protocol&#45;&gt;schemas -->
<g id="edge1" class="edge">
<title>demeter_protocol&#45;&gt;schemas</title>
<path fill="none" stroke="black" d="M200.5,-36.3C200.5,-44.02 200.5,-53.29 200.5,-61.89"/>
<polygon fill="black" stroke="black" points="200.5,-71.9 196,-61.9 200.5,-66.9 200.5,-61.9 200.5,-61.9 200.5,-61.9 200.5,-66.9 205,-61.9 200.5,-71.9 200.5,-71.9"/>
</g>
</g>
</svg>
